<svg xmlns="http://www.w3.org/2000/svg" viewBox="0 0 24 24" role="img" aria-labelledby="githubTitle"><title id="githubTitle">GitHub</title><path fill="#1f3b2d" d="M12 1.5A10.5 10.5 0 0 0 1.5 12a10.5 10.5 0 0 0 7.18 9.97c.53.1.72-.23.72-.51v-1.8c-2.92.64-3.53-1.25-3.53-1.25-.47-1.19-1.15-1.5-1.15-1.5-.94-.64.07-.63.07-.63 1.03.08 1.58 1.06 1.58 1.06.93 1.57 2.43 1.12 3.02.86.09-.67.36-1.12.65-1.38-2.33-.26-4.78-1.15-4.78-5.17 0-1.14.42-2.08 1.08-2.82-.11-.26-.47-1.31.1-2.73 0 0 .88-.28 2.88 1.08A10.1 10.1 0 0 1 12 6.9c.89 0 1.78.12 2.62.34 2-1.36 2.88-1.08 2.88-1.08.57 1.42.21 2.47.1 2.73.68.74 1.08 1.68 1.08 2.82 0 4.03-2.46 4.9-4.8 5.16.37.32.7.95.7 1.92v2.83c0 .28.19.62.73.51A10.5 10.5 0 0 0 22.5 12 10.5 10.5 0 0 0 12 1.5Z"/></svg>