<svg xmlns="http://www.w3.org/2000/svg" viewBox="0 0 600 400" aria-label="Sunrise Solar Solutions logo">
  <defs>
    <linearGradient id="bg" x1="0" y1="0" x2="1" y2="1">
      <stop offset="0%" stop-color="#ffefba" />
      <stop offset="100%" stop-color="#7fc8ff" />
    </linearGradient>
  </defs>
  <rect width="600" height="400" rx="24" fill="url(#bg)" />
  <circle cx="200" cy="148" r="56" fill="#ffb703" />
  <g stroke="#ff9f1c" stroke-width="8" stroke-linecap="round">
    <line x1="200" y1="66" x2="200" y2="40" />
    <line x1="200" y1="256" x2="200" y2="230" />
    <line x1="118" y1="148" x2="92" y2="148" />
    <line x1="308" y1="148" x2="282" y2="148" />
    <line x1="140" y1="88" x2="122" y2="70" />
    <line x1="260" y1="208" x2="278" y2="226" />
    <line x1="260" y1="88" x2="278" y2="70" />
    <line x1="140" y1="208" x2="122" y2="226" />
  </g>
  <polygon points="280,205 465,176 500,264 316,292" fill="#1e4f86" />
  <g stroke="#78b7ff" stroke-width="4">
    <line x1="326" y1="198" x2="359" y2="283" />
    <line x1="369" y1="191" x2="401" y2="276" />
    <line x1="410" y1="184" x2="442" y2="269" />
    <line x1="303" y1="224" x2="486" y2="194" />
    <line x1="316" y1="252" x2="498" y2="222" />
  </g>
  <text x="300" y="330" fill="#113a61" font-family="Poppins, Arial, sans-serif" font-size="32" font-weight="700" text-anchor="middle">Sunrise Solar Solutions</text>
  <text x="300" y="360" fill="#215f96" font-family="Poppins, Arial, sans-serif" font-size="22" font-weight="600" letter-spacing="4" text-anchor="middle">SSS</text>
</svg>
